<svg xmlns="http://www.w3.org/2000/svg" viewBox="0 0 400 120" fill="none">
  <!-- Left branch -->
  <path d="M200 100 C180 80, 140 75, 100 85" stroke="#be9485" stroke-width="1.2" fill="none"/>
  <path d="M200 100 C175 70, 120 60, 60 70" stroke="#be9485" stroke-width="1" fill="none" opacity="0.7"/>
  <!-- Right branch -->
  <path d="M200 100 C220 80, 260 75, 300 85" stroke="#be9485" stroke-width="1.2" fill="none"/>
  <path d="M200 100 C225 70, 280 60, 340 70" stroke="#be9485" stroke-width="1" fill="none" opacity="0.7"/>
  <!-- Left leaves -->
  <ellipse cx="120" cy="78" rx="12" ry="6" transform="rotate(-25 120 78)" fill="white" opacity="0.5"/>
  <ellipse cx="145" cy="73" rx="10" ry="5" transform="rotate(-15 145 73)" fill="white" opacity="0.45"/>
  <ellipse cx="90" cy="82" rx="11" ry="5.5" transform="rotate(-35 90 82)" fill="white" opacity="0.4"/>
  <ellipse cx="75" cy="68" rx="9" ry="4.5" transform="rotate(-30 75 68)" fill="white" opacity="0.35"/>
  <!-- Right leaves -->
  <ellipse cx="280" cy="78" rx="12" ry="6" transform="rotate(25 280 78)" fill="white" opacity="0.5"/>
  <ellipse cx="255" cy="73" rx="10" ry="5" transform="rotate(15 255 73)" fill="white" opacity="0.45"/>
  <ellipse cx="310" cy="82" rx="11" ry="5.5" transform="rotate(35 310 82)" fill="white" opacity="0.4"/>
  <ellipse cx="325" cy="68" rx="9" ry="4.5" transform="rotate(30 325 68)" fill="white" opacity="0.35"/>
  <!-- Center flower -->
  <circle cx="200" cy="58" r="3" fill="white" opacity="0.6"/>
  <ellipse cx="200" cy="48" rx="8" ry="12" fill="white" opacity="0.3"/>
  <ellipse cx="192" cy="54" rx="8" ry="12" transform="rotate(72 192 54)" fill="white" opacity="0.3"/>
  <ellipse cx="195" cy="64" rx="8" ry="12" transform="rotate(144 195 64)" fill="white" opacity="0.3"/>
  <ellipse cx="205" cy="64" rx="8" ry="12" transform="rotate(216 205 64)" fill="white" opacity="0.3"/>
  <ellipse cx="208" cy="54" rx="8" ry="12" transform="rotate(288 208 54)" fill="white" opacity="0.3"/>
  <!-- Small buds left -->
  <circle cx="100" cy="80" r="4" fill="white" opacity="0.4"/>
  <circle cx="100" cy="80" r="2" fill="#E1c2b7" opacity="0.3"/>
  <circle cx="68" cy="72" r="3.5" fill="white" opacity="0.35"/>
  <circle cx="68" cy="72" r="1.5" fill="#E1c2b7" opacity="0.25"/>
  <!-- Small buds right -->
  <circle cx="300" cy="80" r="4" fill="white" opacity="0.4"/>
  <circle cx="300" cy="80" r="2" fill="#E1c2b7" opacity="0.3"/>
  <circle cx="332" cy="72" r="3.5" fill="white" opacity="0.35"/>
  <circle cx="332" cy="72" r="1.5" fill="#E1c2b7" opacity="0.25"/>
  <!-- Side flowers -->
  <circle cx="155" cy="70" r="2.5" fill="white" opacity="0.5"/>
  <ellipse cx="155" cy="63" rx="6" ry="9" fill="white" opacity="0.25"/>
  <ellipse cx="150" cy="67" rx="6" ry="9" transform="rotate(72 150 67)" fill="white" opacity="0.25"/>
  <ellipse cx="152" cy="74" rx="6" ry="9" transform="rotate(144 152 74)" fill="white" opacity="0.25"/>
  <circle cx="245" cy="70" r="2.5" fill="white" opacity="0.5"/>
  <ellipse cx="245" cy="63" rx="6" ry="9" fill="white" opacity="0.25"/>
  <ellipse cx="250" cy="67" rx="6" ry="9" transform="rotate(-72 250 67)" fill="white" opacity="0.25"/>
  <ellipse cx="248" cy="74" rx="6" ry="9" transform="rotate(-144 248 74)" fill="white" opacity="0.25"/>
</svg>
